<svg xmlns="http://www.w3.org/2000/svg" xmlns:xlink="http://www.w3.org/1999/xlink" version="1.1" x="0px" y="0px" viewBox="0 0 24 30" style="enable-background:new 0 0 24 24;" xml:space="preserve"><g><g><g><path d="M16.5,19h-14C1.121,19,0,17.878,0,16.5v-9C0,6.122,1.121,5,2.5,5h14C17.879,5,19,6.122,19,7.5v0.262l4.314-1.726     c0.153-0.062,0.328-0.042,0.466,0.05C23.918,6.179,24,6.334,24,6.5v11c0,0.166-0.082,0.321-0.22,0.414     c-0.137,0.093-0.312,0.111-0.466,0.05L19,16.238V16.5C19,17.878,17.879,19,16.5,19z M2.5,6C1.673,6,1,6.673,1,7.5v9     C1,17.327,1.673,18,2.5,18h14c0.827,0,1.5-0.673,1.5-1.5v-1c0-0.166,0.082-0.321,0.22-0.414c0.137-0.093,0.313-0.112,0.466-0.05     L23,16.762V7.238l-4.314,1.726c-0.153,0.061-0.329,0.042-0.466-0.05C18.082,8.821,18,8.666,18,8.5v-1C18,6.673,17.327,6,16.5,6     H2.5z"/></g></g></g><text x="0" y="39" fill="#000000" font-size="5px" font-weight="bold" font-family="'Helvetica Neue', Helvetica, Arial-Unicode, Arial, Sans-serif">Created by icon 54</text><text x="0" y="44" fill="#000000" font-size="5px" font-weight="bold" font-family="'Helvetica Neue', Helvetica, Arial-Unicode, Arial, Sans-serif">from the Noun Project</text></svg>