<?xml version="1.0" encoding="utf-8"?><!DOCTYPE svg PUBLIC "-//W3C//DTD SVG 1.1//EN" "http://www.w3.org/Graphics/SVG/1.1/DTD/svg11.dtd"><svg version="1.1" xmlns:rdf="http://www.w3.org/1999/02/22-rdf-syntax-ns#" xmlns:cc="http://creativecommons.org/ns#" xmlns:sodipodi="http://sodipodi.sourceforge.net/DTD/sodipodi-0.dtd" xmlns:dc="http://purl.org/dc/elements/1.1/" xmlns:inkscape="http://www.inkscape.org/namespaces/inkscape" xmlns:svg="http://www.w3.org/2000/svg" xmlns="http://www.w3.org/2000/svg" xmlns:xlink="http://www.w3.org/1999/xlink" x="0px" y="0px" viewBox="0 1.554 100 121.11625000000001" enable-background="new 0 1.554 100 96.893" xml:space="preserve"><path d="M31.356,1.554H14.548C6.572,1.554,0,8.126,0,16.102v16.808c0,7.976,6.572,14.478,14.548,14.478h16.808
	c7.976,0,14.478-6.501,14.478-14.478V16.102C45.833,8.126,39.332,1.554,31.356,1.554z M37.429,32.909
	c0,3.437-2.636,6.074-6.073,6.074H14.548c-3.436,0-6.073-2.637-6.073-6.074V16.102c0-3.437,2.637-6.074,6.073-6.074h16.808
	c3.437,0,6.073,2.637,6.073,6.074V32.909z"/><path d="M77.119,47.387C89.711,47.387,100,37.098,100,24.505c0-12.592-10.289-22.881-22.881-22.881
	c-12.593,0-22.882,10.29-22.882,22.881C54.237,37.098,64.526,47.387,77.119,47.387z M77.119,10.028
	c8.021,0,14.406,6.457,14.406,14.478c0,8.021-6.386,14.407-14.406,14.407c-8.021,0-14.479-6.385-14.479-14.407
	C62.641,16.484,69.098,10.028,77.119,10.028z"/><path d="M85.522,52.613H68.715c-7.976,0-14.549,6.571-14.549,14.547v16.738c0,7.976,6.573,14.548,14.549,14.548h16.808
	c7.976,0,14.478-6.572,14.478-14.548V67.16C100,59.185,93.498,52.613,85.522,52.613z M91.596,83.898
	c0,3.437-2.637,6.145-6.073,6.145H68.715c-3.437,0-6.074-2.708-6.074-6.145V67.161c0-3.437,2.638-6.073,6.074-6.073h16.808
	c3.437,0,6.073,2.637,6.073,6.073V83.898z"/><path d="M22.952,52.684c-12.592,0-22.881,10.289-22.881,22.882c0,12.592,10.29,22.881,22.881,22.881s22.881-10.289,22.881-22.881
	C45.833,62.973,35.544,52.684,22.952,52.684z M22.952,89.973c-8.021,0-14.407-6.387-14.407-14.407
	c0-8.021,6.386-14.478,14.407-14.478s14.407,6.456,14.407,14.478C37.359,83.586,30.973,89.973,22.952,89.973z"/><text x="0" y="113.447" fill="#000000" font-size="5px" font-weight="bold" font-family="'Helvetica Neue', Helvetica, Arial-Unicode, Arial, Sans-serif">Created by artworkbean</text><text x="0" y="118.447" fill="#000000" font-size="5px" font-weight="bold" font-family="'Helvetica Neue', Helvetica, Arial-Unicode, Arial, Sans-serif">from the Noun Project</text></svg>