<svg xmlns="http://www.w3.org/2000/svg" xmlns:xlink="http://www.w3.org/1999/xlink" version="1.1" x="0px" y="0px" viewBox="0 0 24 30" style="enable-background:new 0 0 24 24;" xml:space="preserve"><g><g><g><path d="M20.5,22h-17C1.57,22,0,20.43,0,18.5v-9C0,7.57,1.57,6,3.5,6h3c0.215,0,0.406-0.137,0.475-0.342l0.316-0.949     C7.631,3.687,8.584,3,9.662,3h4.676c1.078,0,2.031,0.687,2.372,1.71l0.316,0.948C17.094,5.863,17.285,6,17.5,6h3     C22.43,6,24,7.57,24,9.5v9C24,20.43,22.43,22,20.5,22z M3.5,7C2.122,7,1,8.122,1,9.5v9C1,19.878,2.122,21,3.5,21h17     c1.378,0,2.5-1.122,2.5-2.5v-9C23,8.122,21.878,7,20.5,7h-3c-0.646,0-1.218-0.412-1.423-1.025l-0.316-0.949     C15.556,4.412,14.984,4,14.338,4H9.662C9.016,4,8.444,4.412,8.24,5.025L7.923,5.975C7.718,6.588,7.146,7,6.5,7H3.5z"/></g><g><path d="M12,20c-3.309,0-6-2.691-6-6s2.691-6,6-6s6,2.691,6,6S15.309,20,12,20z M12,9c-2.757,0-5,2.243-5,5s2.243,5,5,5     s5-2.243,5-5S14.757,9,12,9z"/></g><g><path d="M8.5,14.5C8.224,14.5,8,14.276,8,14c0-2.206,1.794-4,4-4c0.276,0,0.5,0.224,0.5,0.5S12.276,11,12,11     c-1.654,0-3,1.346-3,3C9,14.276,8.776,14.5,8.5,14.5z"/></g></g></g><text x="0" y="39" fill="#000000" font-size="5px" font-weight="bold" font-family="'Helvetica Neue', Helvetica, Arial-Unicode, Arial, Sans-serif">Created by icon 54</text><text x="0" y="44" fill="#000000" font-size="5px" font-weight="bold" font-family="'Helvetica Neue', Helvetica, Arial-Unicode, Arial, Sans-serif">from the Noun Project</text></svg>