<?xml version="1.0" encoding="utf-8"?>
<!-- Generator: Adobe Illustrator 24.0.2, SVG Export Plug-In . SVG Version: 6.00 Build 0)  -->
<svg version="1.1" xmlns="http://www.w3.org/2000/svg" xmlns:xlink="http://www.w3.org/1999/xlink" x="0px" y="0px"
	 viewBox="0 0 100 125" style="enable-background:new 0 0 100 125;" xml:space="preserve">
<g id="Livello_2">
</g>
<g id="Livello_1">
	<g>
		<circle cx="20.4" cy="38.3" r="5.1"/>
		<path d="M84.6,20.4H74.5l-0.9-1.9c-1.8-3.6-5.4-5.9-9.4-5.9H35.9c-4,0-7.7,2.3-9.4,5.9l-0.9,1.9H15.4c-7.1,0-12.9,5.8-12.9,12.9
			v41c0,7.1,5.8,12.9,12.9,12.9h69.1c7.1,0,12.9-5.8,12.9-12.9v-41C97.5,26.2,91.7,20.4,84.6,20.4z M90.5,74.4c0,3.3-2.7,6-6,6H15.4
			c-3.3,0-6-2.7-6-6v-41c0-3.3,2.7-6,6-6h12.2c1.3,0,2.5-0.8,3.1-1.9l1.9-3.8c0.6-1.2,1.8-2,3.2-2h28.3c1.4,0,2.6,0.8,3.2,2l1.9,3.8
			c0.6,1.2,1.8,1.9,3.1,1.9h12.2c3.3,0,6,2.7,6,6C90.5,33.4,90.5,74.4,90.5,74.4z"/>
		<path d="M50,30.1c-11.8,0-21.4,9.6-21.4,21.4S38.2,73,50,73s21.4-9.6,21.4-21.4S61.8,30.1,50,30.1z M50,66
			c-8,0-14.5-6.5-14.5-14.5S42,37.1,50,37.1s14.5,6.5,14.5,14.5S58,66,50,66z"/>
	</g>
</g>
</svg>
