<?xml version="1.0" encoding="utf-8"?>
<!-- Generator: Adobe Illustrator 24.0.2, SVG Export Plug-In . SVG Version: 6.00 Build 0)  -->
<svg version="1.1" xmlns="http://www.w3.org/2000/svg" xmlns:xlink="http://www.w3.org/1999/xlink" x="0px" y="0px"
	 viewBox="0 0 100 125" style="enable-background:new 0 0 100 125;" xml:space="preserve">
<g id="Livello_2">
</g>
<g id="Livello_1">
	<path d="M96.9,76.7L69.7,49.5L92.2,27c4.2-4.2,4.2-11.1,0-15.3l-3.9-3.9c-4.2-4.2-11.1-4.2-15.3,0L50.5,30.3L23.3,3.1
		c-0.7-0.7-1.9-0.7-2.7,0L3,20.7c-0.7,0.7-0.7,1.9,0,2.7l27.2,27.2L8.9,71.9c-1.4,1.4-2.3,3.1-2.7,5L2.7,94.2
		c-0.2,0.9,0.1,1.7,0.7,2.4c0.5,0.5,1.2,0.8,1.8,0.8c0.2,0,0.3,0,0.5-0.1L23,93.8c1.9-0.4,3.7-1.3,5-2.7l21.3-21.3L76.5,97
		c0.4,0.4,0.9,0.6,1.3,0.6c0.5,0,1-0.2,1.3-0.6l17.6-17.6C97.7,78.6,97.7,77.4,96.9,76.7z M75.7,10.4c1.4-1.4,3.2-2.1,5-2.1
		s3.6,0.7,5,2.1l3.9,3.9c2.7,2.7,2.7,7.2,0,10l-0.4,0.4L75.4,10.9L75.7,10.4z M7.1,22L22,7.1l4.7,4.7l-7.4,7.4
		c-0.7,0.7-0.7,1.9,0,2.7c0.4,0.4,0.9,0.6,1.3,0.6s1-0.2,1.3-0.6l7.4-7.4l4.7,4.7l-7.4,7.4c-0.7,0.7-0.7,1.9,0,2.7
		c0.4,0.4,0.9,0.6,1.3,0.6c0.5,0,1-0.2,1.3-0.6l7.4-7.4l4.7,4.7L33.9,34c-0.7,0.7-0.7,1.9,0,2.7c0.4,0.4,0.9,0.6,1.3,0.6
		s1-0.2,1.3-0.6l7.4-7.4l3.8,3.8L32.8,48L7.1,22z M11.6,74.6l61-61l5.6,5.6L16.8,80.6L11.2,75C11.3,74.8,11.5,74.7,11.6,74.6z
		 M11.2,92.4l-3.6-3.6l2-10l11.5,11.5L11.2,92.4z M25.4,88.4c-0.1,0.1-0.3,0.2-0.4,0.3l-5.6-5.6l61.4-61.4l5.6,5.6L25.4,88.4z
		 M78,92.9L52.1,67L67,52.1l3.8,3.8l-7.4,7.4c-0.7,0.7-0.7,1.9,0,2.7c0.4,0.4,0.9,0.6,1.3,0.6s1-0.2,1.3-0.6l7.4-7.4l4.7,4.7
		l-7.4,7.4c-0.7,0.7-0.7,1.9,0,2.7c0.4,0.4,0.9,0.6,1.3,0.6c0.5,0,1-0.2,1.3-0.6l7.4-7.4l4.7,4.7L78,78.1c-0.7,0.7-0.7,1.9,0,2.7
		c0.4,0.4,0.9,0.6,1.3,0.6s1-0.2,1.3-0.6l7.4-7.4l4.7,4.7L78,92.9z"/>
</g>
</svg>
