<?xml version="1.0" encoding="utf-8"?>
<!-- Generator: Adobe Illustrator 24.0.2, SVG Export Plug-In . SVG Version: 6.00 Build 0)  -->
<svg version="1.1" id="Livello_1" xmlns="http://www.w3.org/2000/svg" xmlns:xlink="http://www.w3.org/1999/xlink" x="0px" y="0px"
	 viewBox="0 0 500 625" style="enable-background:new 0 0 500 625;" xml:space="preserve">
<g>
	<g>
		<g>
			<g>
				<path d="M452.9,446.7c-13.1,0-26.1,0-39.2,0c-31.7,0-63.4,0-95,0c-38.5,0-76.9,0-115.4,0c-34,0-67.9,0-101.9,0
					c-17.6,0-35.2,0.1-52.8,0c-10.3,0-18.7-6.7-18.8-17.5c-0.1-5.1,0-10.2,0-15.4c0-27.4,0-54.7,0-82.1c0-38.1,0-76.3,0-114.4
					c0-33.8,0-67.7,0-101.5c0-15-0.3-30.1,0-45.1c0.2-9.5,7.6-17,17.1-17.2c1,0,1.9,0,2.9,0c6.9,0,13.7,0,20.6,0
					c28.2,0,56.3,0,84.5,0c37.8,0,75.7,0,113.5,0c36.2,0,72.3,0,108.5,0c22.6,0,45.2,0,67.8,0c4.9,0,10.4-0.6,14.9,1.3
					c9.3,3.9,10.4,12.7,10.4,21.3c0,22.7,0,45.4,0,68.1c0,36.8,0,73.5,0,110.3c0,36.2,0,72.4,0,108.6c0,21,0,41.9,0,62.9
					c0,1.1,0,2.3,0,3.4C469.8,439.1,462.4,446.5,452.9,446.7c-12.8,0.3-12.9,20.3,0,20c21.6-0.5,37.1-17.7,37.1-38.9
					c0-6.8,0-13.6,0-20.4c0-30.1,0-60.2,0-90.3c0-39.1,0-78.2,0-117.2c0-32.4,0-64.8,0-97.2c0-8.8,0-17.7,0-26.5
					c0-12.3-2.5-24.3-12.3-33c-8.8-7.8-19.3-9.6-30.5-9.6c-8.2,0-16.5,0-24.7,0c-30.6,0-61.1,0-91.7,0c-39.1,0-78.2,0-117.3,0
					c-35.3,0-70.7,0-106,0c-19.3,0-38.6,0-58,0c-17.3,0-32.9,9.3-38.2,26.4c-2,6.5-1.6,13.5-1.6,20.3c0,25.6,0,51.2,0,76.7
					c0,38.3,0,76.7,0,115c0,35.5,0,70.9,0,106.4c0,16.9-0.3,33.9,0,50.8c0.4,21,16.8,37.1,37.7,37.4c5.2,0.1,10.3,0,15.5,0
					c26.6,0,53.3,0,79.9,0c38.1,0,76.3,0,114.4,0c37.4,0,74.8,0,112.1,0c24.3,0,48.7,0,73,0c3.4,0,6.9,0,10.3,0
					C465.7,466.7,465.7,446.7,452.9,446.7z"/>
			</g>
		</g>
		<g>
			<g>
				<path d="M20.2,152.1c15.3,0,30.6,0,45.9,0c36.6,0,73.1,0,109.7,0c44.2,0,88.4,0,132.6,0c38.3,0,76.7,0,115,0
					c18.5,0,37.1,0.7,55.6,0c0.3,0,0.5,0,0.8,0c12.9,0,12.9-20,0-20c-15.3,0-30.6,0-45.9,0c-36.6,0-73.1,0-109.7,0
					c-44.2,0-88.4,0-132.6,0c-38.3,0-76.7,0-115,0c-18.5,0-37.1-0.7-55.6,0c-0.3,0-0.5,0-0.8,0C7.3,132.1,7.3,152.1,20.2,152.1
					L20.2,152.1z"/>
			</g>
		</g>
	</g>
	<g>
		<g>
			<circle cx="88.6" cy="93.5" r="13"/>
			<g>
				<path d="M96.6,93.5c-0.5,10.2-16,10.4-16,0S96,83.3,96.6,93.5c0.3,6.4,10.3,6.4,10,0c-0.5-9.7-7.9-18-18-18c-9.8,0-18,8.2-18,18
					s8.2,18,18,18c10.1,0,17.5-8.2,18-18C106.9,87,96.9,87.1,96.6,93.5z"/>
			</g>
		</g>
		<g>
			<circle cx="141.7" cy="93.5" r="13"/>
			<g>
				<path d="M149.7,93.5c-0.5,10.2-16,10.4-16,0S149.1,83.3,149.7,93.5c0.3,6.4,10.3,6.4,10,0c-0.5-9.7-7.9-18-18-18
					c-9.8,0-18,8.2-18,18s8.2,18,18,18c10.1,0,17.5-8.2,18-18C160,87,150,87.1,149.7,93.5z"/>
			</g>
		</g>
		<g>
			<circle cx="196" cy="93.5" r="13"/>
			<g>
				<path d="M204,93.5c-0.5,10.2-16,10.4-16,0S203.5,83.3,204,93.5c0.3,6.4,10.3,6.4,10,0c-0.5-9.7-7.9-18-18-18
					c-9.8,0-18,8.2-18,18s8.2,18,18,18c10.1,0,17.5-8.2,18-18C214.3,87,204.3,87.1,204,93.5z"/>
			</g>
		</g>
	</g>
</g>
</svg>
